ISO-10303-21;
HEADER;
FILE_DESCRIPTION((''),'2;1');
FILE_NAME('XSD57_067','2026-07-17T07:43:20',('s.tokarev'),(''),
'CREO PARAMETRIC BY PTC INC, 2025010','CREO PARAMETRIC BY PTC INC, 2025010','');
FILE_SCHEMA((
'AP242_MANAGED_MODEL_BASED_3D_ENGINEERING_MIM_LF { 1 0 10303 442 1 1 4 }'));
ENDSEC;
DATA;
#40=CARTESIAN_POINT('',(-3.E0,5.6E0,-6.E0));
#41=DIRECTION('',(0.E0,0.E0,1.E0));
#42=DIRECTION('',(1.E0,0.E0,0.E0));
#43=AXIS2_PLACEMENT_3D('',#40,#41,#42);
#45=DRAUGHTING_PRE_DEFINED_CURVE_FONT('continuous');
#46=CURVE_STYLE('',#45,POSITIVE_LENGTH_MEASURE(2.E-2),#31);
#47=PRESENTATION_STYLE_ASSIGNMENT((#46));
#48=STYLED_ITEM('',(#47),#44);
#49=DIRECTION('',(0.E0,-1.E0,0.E0));
#50=VECTOR('',#49,5.6E0);
#51=CARTESIAN_POINT('',(-3.4E0,5.6E0,-6.E0));
#52=LINE('',#51,#50);
#53=CURVE_STYLE('',#45,POSITIVE_LENGTH_MEASURE(2.E-2),#31);
#54=PRESENTATION_STYLE_ASSIGNMENT((#53));
#55=STYLED_ITEM('',(#54),#52);
#56=DIRECTION('',(1.E0,0.E0,0.E0));
#57=VECTOR('',#56,6.8E0);
#58=CARTESIAN_POINT('',(-3.4E0,0.E0,-6.E0));
#59=LINE('',#58,#57);
#60=CURVE_STYLE('',#45,POSITIVE_LENGTH_MEASURE(2.E-2),#31);
#61=PRESENTATION_STYLE_ASSIGNMENT((#60));
#62=STYLED_ITEM('',(#61),#59);
#63=DIRECTION('',(0.E0,1.E0,0.E0));
#64=VECTOR('',#63,5.6E0);
#65=CARTESIAN_POINT('',(3.4E0,0.E0,-6.E0));
#66=LINE('',#65,#64);
#67=CURVE_STYLE('',#45,POSITIVE_LENGTH_MEASURE(2.E-2),#31);
#68=PRESENTATION_STYLE_ASSIGNMENT((#67));
#69=STYLED_ITEM('',(#68),#66);
#70=CARTESIAN_POINT('',(3.E0,5.6E0,-6.E0));
#71=DIRECTION('',(0.E0,0.E0,1.E0));
#72=DIRECTION('',(1.E0,0.E0,0.E0));
#73=AXIS2_PLACEMENT_3D('',#70,#71,#72);
#75=CURVE_STYLE('',#45,POSITIVE_LENGTH_MEASURE(2.E-2),#31);
#76=PRESENTATION_STYLE_ASSIGNMENT((#75));
#77=STYLED_ITEM('',(#76),#74);
#78=DIRECTION('',(0.E0,-1.E0,0.E0));
#79=VECTOR('',#78,4.1E0);
#80=CARTESIAN_POINT('',(2.6E0,5.6E0,-6.E0));
#81=LINE('',#80,#79);
#82=CURVE_STYLE('',#45,POSITIVE_LENGTH_MEASURE(2.E-2),#31);
#83=PRESENTATION_STYLE_ASSIGNMENT((#82));
#84=STYLED_ITEM('',(#83),#81);
#85=DIRECTION('',(-1.E0,0.E0,0.E0));
#86=VECTOR('',#85,1.2E0);
#87=CARTESIAN_POINT('',(2.6E0,1.5E0,-6.E0));
#88=LINE('',#87,#86);
#89=CURVE_STYLE('',#45,POSITIVE_LENGTH_MEASURE(2.E-2),#31);
#90=PRESENTATION_STYLE_ASSIGNMENT((#89));
#91=STYLED_ITEM('',(#90),#88);
#92=DIRECTION('',(0.E0,1.E0,0.E0));
#93=VECTOR('',#92,4.1E0);
#94=CARTESIAN_POINT('',(1.4E0,1.5E0,-6.E0));
#95=LINE('',#94,#93);
#96=CURVE_STYLE('',#45,POSITIVE_LENGTH_MEASURE(2.E-2),#31);
#97=PRESENTATION_STYLE_ASSIGNMENT((#96));
#98=STYLED_ITEM('',(#97),#95);
#99=CARTESIAN_POINT('',(1.E0,5.6E0,-6.E0));
#100=DIRECTION('',(0.E0,0.E0,1.E0));
#101=DIRECTION('',(1.E0,0.E0,0.E0));
#102=AXIS2_PLACEMENT_3D('',#99,#100,#101);
#104=CURVE_STYLE('',#45,POSITIVE_LENGTH_MEASURE(2.E-2),#31);
#105=PRESENTATION_STYLE_ASSIGNMENT((#104));
#106=STYLED_ITEM('',(#105),#103);
#107=DIRECTION('',(0.E0,-1.E0,0.E0));
#108=VECTOR('',#107,4.1E0);
#109=CARTESIAN_POINT('',(6.E-1,5.6E0,-6.E0));
#110=LINE('',#109,#108);
#111=CURVE_STYLE('',#45,POSITIVE_LENGTH_MEASURE(2.E-2),#31);
#112=PRESENTATION_STYLE_ASSIGNMENT((#111));
#113=STYLED_ITEM('',(#112),#110);
#114=DIRECTION('',(-1.E0,0.E0,0.E0));
#115=VECTOR('',#114,1.2E0);
#116=CARTESIAN_POINT('',(6.E-1,1.5E0,-6.E0));
#117=LINE('',#116,#115);
#118=CURVE_STYLE('',#45,POSITIVE_LENGTH_MEASURE(2.E-2),#31);
#119=PRESENTATION_STYLE_ASSIGNMENT((#118));
#120=STYLED_ITEM('',(#119),#117);
#121=DIRECTION('',(0.E0,1.E0,0.E0));
#122=VECTOR('',#121,4.1E0);
#123=CARTESIAN_POINT('',(-6.E-1,1.5E0,-6.E0));
#124=LINE('',#123,#122);
#125=CURVE_STYLE('',#45,POSITIVE_LENGTH_MEASURE(2.E-2),#31);
#126=PRESENTATION_STYLE_ASSIGNMENT((#125));
#127=STYLED_ITEM('',(#126),#124);
#128=CARTESIAN_POINT('',(-1.E0,5.6E0,-6.E0));
#129=DIRECTION('',(0.E0,0.E0,1.E0));
#130=DIRECTION('',(1.E0,0.E0,0.E0));
#131=AXIS2_PLACEMENT_3D('',#128,#129,#130);
#133=CURVE_STYLE('',#45,POSITIVE_LENGTH_MEASURE(2.E-2),#31);
#134=PRESENTATION_STYLE_ASSIGNMENT((#133));
#135=STYLED_ITEM('',(#134),#132);
#136=DIRECTION('',(0.E0,-1.E0,0.E0));
#137=VECTOR('',#136,4.1E0);
#138=CARTESIAN_POINT('',(-1.4E0,5.6E0,-6.E0));
#139=LINE('',#138,#137);
#140=CURVE_STYLE('',#45,POSITIVE_LENGTH_MEASURE(2.E-2),#31);
#141=PRESENTATION_STYLE_ASSIGNMENT((#140));
#142=STYLED_ITEM('',(#141),#139);
#143=DIRECTION('',(-1.E0,0.E0,0.E0));
#144=VECTOR('',#143,1.2E0);
#145=CARTESIAN_POINT('',(-1.4E0,1.5E0,-6.E0));
#146=LINE('',#145,#144);
#147=CURVE_STYLE('',#45,POSITIVE_LENGTH_MEASURE(2.E-2),#31);
#148=PRESENTATION_STYLE_ASSIGNMENT((#147));
#149=STYLED_ITEM('',(#148),#146);
#150=DIRECTION('',(0.E0,1.E0,0.E0));
#151=VECTOR('',#150,4.1E0);
#152=CARTESIAN_POINT('',(-2.6E0,1.5E0,-6.E0));
#153=LINE('',#152,#151);
#154=CURVE_STYLE('',#45,POSITIVE_LENGTH_MEASURE(2.E-2),#31);
#155=PRESENTATION_STYLE_ASSIGNMENT((#154));
#156=STYLED_ITEM('',(#155),#153);
#157=DIRECTION('',(0.E0,0.E0,-1.E0));
#158=VECTOR('',#157,1.2E1);
#159=CARTESIAN_POINT('',(-2.6E0,5.6E0,6.E0));
#160=LINE('',#159,#158);
#161=CURVE_STYLE('',#45,POSITIVE_LENGTH_MEASURE(2.E-2),#31);
#162=PRESENTATION_STYLE_ASSIGNMENT((#161));
#163=STYLED_ITEM('',(#162),#160);
#164=DIRECTION('',(0.E0,0.E0,1.E0));
#165=VECTOR('',#164,1.2E1);
#166=CARTESIAN_POINT('',(-2.6E0,1.5E0,-6.E0));
#167=LINE('',#166,#165);
#168=CURVE_STYLE('',#45,POSITIVE_LENGTH_MEASURE(2.E-2),#31);
#169=PRESENTATION_STYLE_ASSIGNMENT((#168));
#170=STYLED_ITEM('',(#169),#167);
#171=DIRECTION('',(0.E0,0.E0,1.E0));
#172=VECTOR('',#171,1.2E1);
#173=CARTESIAN_POINT('',(-1.4E0,1.5E0,-6.E0));
#174=LINE('',#173,#172);
#175=CURVE_STYLE('',#45,POSITIVE_LENGTH_MEASURE(2.E-2),#31);
#176=PRESENTATION_STYLE_ASSIGNMENT((#175));
#177=STYLED_ITEM('',(#176),#174);
#178=DIRECTION('',(0.E0,0.E0,-1.E0));
#179=VECTOR('',#178,1.2E1);
#180=CARTESIAN_POINT('',(-1.4E0,5.6E0,6.E0));
#181=LINE('',#180,#179);
#182=CURVE_STYLE('',#45,POSITIVE_LENGTH_MEASURE(2.E-2),#31);
#183=PRESENTATION_STYLE_ASSIGNMENT((#182));
#184=STYLED_ITEM('',(#183),#181);
#185=DIRECTION('',(0.E0,0.E0,-1.E0));
#186=VECTOR('',#185,1.2E1);
#187=CARTESIAN_POINT('',(-6.E-1,5.6E0,6.E0));
#188=LINE('',#187,#186);
#189=CURVE_STYLE('',#45,POSITIVE_LENGTH_MEASURE(2.E-2),#31);
#190=PRESENTATION_STYLE_ASSIGNMENT((#189));
#191=STYLED_ITEM('',(#190),#188);
#192=DIRECTION('',(0.E0,0.E0,1.E0));
#193=VECTOR('',#192,1.2E1);
#194=CARTESIAN_POINT('',(-6.E-1,1.5E0,-6.E0));
#195=LINE('',#194,#193);
#196=CURVE_STYLE('',#45,POSITIVE_LENGTH_MEASURE(2.E-2),#31);
#197=PRESENTATION_STYLE_ASSIGNMENT((#196));
#198=STYLED_ITEM('',(#197),#195);
#199=DIRECTION('',(0.E0,0.E0,1.E0));
#200=VECTOR('',#199,1.2E1);
#201=CARTESIAN_POINT('',(6.E-1,1.5E0,-6.E0));
#202=LINE('',#201,#200);
#203=CURVE_STYLE('',#45,POSITIVE_LENGTH_MEASURE(2.E-2),#31);
#204=PRESENTATION_STYLE_ASSIGNMENT((#203));
#205=STYLED_ITEM('',(#204),#202);
#206=DIRECTION('',(0.E0,0.E0,-1.E0));
#207=VECTOR('',#206,1.2E1);
#208=CARTESIAN_POINT('',(6.E-1,5.6E0,6.E0));
#209=LINE('',#208,#207);
#210=CURVE_STYLE('',#45,POSITIVE_LENGTH_MEASURE(2.E-2),#31);
#211=PRESENTATION_STYLE_ASSIGNMENT((#210));
#212=STYLED_ITEM('',(#211),#209);
#213=DIRECTION('',(0.E0,0.E0,-1.E0));
#214=VECTOR('',#213,1.2E1);
#215=CARTESIAN_POINT('',(1.4E0,5.6E0,6.E0));
#216=LINE('',#215,#214);
#217=CURVE_STYLE('',#45,POSITIVE_LENGTH_MEASURE(2.E-2),#31);
#218=PRESENTATION_STYLE_ASSIGNMENT((#217));
#219=STYLED_ITEM('',(#218),#216);
#220=DIRECTION('',(0.E0,0.E0,1.E0));
#221=VECTOR('',#220,1.2E1);
#222=CARTESIAN_POINT('',(1.4E0,1.5E0,-6.E0));
#223=LINE('',#222,#221);
#224=CURVE_STYLE('',#45,POSITIVE_LENGTH_MEASURE(2.E-2),#31);
#225=PRESENTATION_STYLE_ASSIGNMENT((#224));
#226=STYLED_ITEM('',(#225),#223);
#227=DIRECTION('',(0.E0,0.E0,1.E0));
#228=VECTOR('',#227,1.2E1);
#229=CARTESIAN_POINT('',(2.6E0,1.5E0,-6.E0));
#230=LINE('',#229,#228);
#231=CURVE_STYLE('',#45,POSITIVE_LENGTH_MEASURE(2.E-2),#31);
#232=PRESENTATION_STYLE_ASSIGNMENT((#231));
#233=STYLED_ITEM('',(#232),#230);
#234=DIRECTION('',(0.E0,0.E0,-1.E0));
#235=VECTOR('',#234,1.2E1);
#236=CARTESIAN_POINT('',(2.6E0,5.6E0,6.E0));
#237=LINE('',#236,#235);
#238=CURVE_STYLE('',#45,POSITIVE_LENGTH_MEASURE(2.E-2),#31);
#239=PRESENTATION_STYLE_ASSIGNMENT((#238));
#240=STYLED_ITEM('',(#239),#237);
#241=DIRECTION('',(0.E0,0.E0,-1.E0));
#242=VECTOR('',#241,1.2E1);
#243=CARTESIAN_POINT('',(3.4E0,5.6E0,6.E0));
#244=LINE('',#243,#242);
#245=CURVE_STYLE('',#45,POSITIVE_LENGTH_MEASURE(2.E-2),#31);
#246=PRESENTATION_STYLE_ASSIGNMENT((#245));
#247=STYLED_ITEM('',(#246),#244);
#248=DIRECTION('',(0.E0,0.E0,1.E0));
#249=VECTOR('',#248,1.2E1);
#250=CARTESIAN_POINT('',(3.4E0,0.E0,-6.E0));
#251=LINE('',#250,#249);
#252=CURVE_STYLE('',#45,POSITIVE_LENGTH_MEASURE(2.E-2),#31);
#253=PRESENTATION_STYLE_ASSIGNMENT((#252));
#254=STYLED_ITEM('',(#253),#251);
#255=DIRECTION('',(0.E0,0.E0,1.E0));
#256=VECTOR('',#255,1.2E1);
#257=CARTESIAN_POINT('',(-3.4E0,0.E0,-6.E0));
#258=LINE('',#257,#256);
#259=CURVE_STYLE('',#45,POSITIVE_LENGTH_MEASURE(2.E-2),#31);
#260=PRESENTATION_STYLE_ASSIGNMENT((#259));
#261=STYLED_ITEM('',(#260),#258);
#262=DIRECTION('',(0.E0,0.E0,-1.E0));
#263=VECTOR('',#262,1.2E1);
#264=CARTESIAN_POINT('',(-3.4E0,5.6E0,6.E0));
#265=LINE('',#264,#263);
#266=CURVE_STYLE('',#45,POSITIVE_LENGTH_MEASURE(2.E-2),#31);
#267=PRESENTATION_STYLE_ASSIGNMENT((#266));
#268=STYLED_ITEM('',(#267),#265);
#269=CARTESIAN_POINT('',(-3.E0,5.6E0,6.E0));
#270=DIRECTION('',(0.E0,0.E0,-1.E0));
#271=DIRECTION('',(-1.E0,0.E0,0.E0));
#272=AXIS2_PLACEMENT_3D('',#269,#270,#271);
#274=CURVE_STYLE('',#45,POSITIVE_LENGTH_MEASURE(2.E-2),#31);
#275=PRESENTATION_STYLE_ASSIGNMENT((#274));
#276=STYLED_ITEM('',(#275),#273);
#277=DIRECTION('',(0.E0,1.E0,0.E0));
#278=VECTOR('',#277,4.1E0);
#279=CARTESIAN_POINT('',(-2.6E0,1.5E0,6.E0));
#280=LINE('',#279,#278);
#281=CURVE_STYLE('',#45,POSITIVE_LENGTH_MEASURE(2.E-2),#31);
#282=PRESENTATION_STYLE_ASSIGNMENT((#281));
#283=STYLED_ITEM('',(#282),#280);
#284=DIRECTION('',(-1.E0,0.E0,0.E0));
#285=VECTOR('',#284,1.2E0);
#286=CARTESIAN_POINT('',(-1.4E0,1.5E0,6.E0));
#287=LINE('',#286,#285);
#288=CURVE_STYLE('',#45,POSITIVE_LENGTH_MEASURE(2.E-2),#31);
#289=PRESENTATION_STYLE_ASSIGNMENT((#288));
#290=STYLED_ITEM('',(#289),#287);
#291=DIRECTION('',(0.E0,-1.E0,0.E0));
#292=VECTOR('',#291,4.1E0);
#293=CARTESIAN_POINT('',(-1.4E0,5.6E0,6.E0));
#294=LINE('',#293,#292);
#295=CURVE_STYLE('',#45,POSITIVE_LENGTH_MEASURE(2.E-2),#31);
#296=PRESENTATION_STYLE_ASSIGNMENT((#295));
#297=STYLED_ITEM('',(#296),#294);
#298=CARTESIAN_POINT('',(-1.E0,5.6E0,6.E0));
#299=DIRECTION('',(0.E0,0.E0,-1.E0));
#300=DIRECTION('',(-1.E0,0.E0,0.E0));
#301=AXIS2_PLACEMENT_3D('',#298,#299,#300);
#303=CURVE_STYLE('',#45,POSITIVE_LENGTH_MEASURE(2.E-2),#31);
#304=PRESENTATION_STYLE_ASSIGNMENT((#303));
#305=STYLED_ITEM('',(#304),#302);
#306=DIRECTION('',(0.E0,1.E0,0.E0));
#307=VECTOR('',#306,4.1E0);
#308=CARTESIAN_POINT('',(-6.E-1,1.5E0,6.E0));
#309=LINE('',#308,#307);
#310=CURVE_STYLE('',#45,POSITIVE_LENGTH_MEASURE(2.E-2),#31);
#311=PRESENTATION_STYLE_ASSIGNMENT((#310));
#312=STYLED_ITEM('',(#311),#309);
#313=DIRECTION('',(-1.E0,0.E0,0.E0));
#314=VECTOR('',#313,1.2E0);
#315=CARTESIAN_POINT('',(6.E-1,1.5E0,6.E0));
#316=LINE('',#315,#314);
#317=CURVE_STYLE('',#45,POSITIVE_LENGTH_MEASURE(2.E-2),#31);
#318=PRESENTATION_STYLE_ASSIGNMENT((#317));
#319=STYLED_ITEM('',(#318),#316);
#320=DIRECTION('',(0.E0,-1.E0,0.E0));
#321=VECTOR('',#320,4.1E0);
#322=CARTESIAN_POINT('',(6.E-1,5.6E0,6.E0));
#323=LINE('',#322,#321);
#324=CURVE_STYLE('',#45,POSITIVE_LENGTH_MEASURE(2.E-2),#31);
#325=PRESENTATION_STYLE_ASSIGNMENT((#324));
#326=STYLED_ITEM('',(#325),#323);
#327=CARTESIAN_POINT('',(1.E0,5.6E0,6.E0));
#328=DIRECTION('',(0.E0,0.E0,-1.E0));
#329=DIRECTION('',(-1.E0,0.E0,0.E0));
#330=AXIS2_PLACEMENT_3D('',#327,#328,#329);
#332=CURVE_STYLE('',#45,POSITIVE_LENGTH_MEASURE(2.E-2),#31);
#333=PRESENTATION_STYLE_ASSIGNMENT((#332));
#334=STYLED_ITEM('',(#333),#331);
#335=DIRECTION('',(0.E0,1.E0,0.E0));
#336=VECTOR('',#335,4.1E0);
#337=CARTESIAN_POINT('',(1.4E0,1.5E0,6.E0));
#338=LINE('',#337,#336);
#339=CURVE_STYLE('',#45,POSITIVE_LENGTH_MEASURE(2.E-2),#31);
#340=PRESENTATION_STYLE_ASSIGNMENT((#339));
#341=STYLED_ITEM('',(#340),#338);
#342=DIRECTION('',(-1.E0,0.E0,0.E0));
#343=VECTOR('',#342,1.2E0);
#344=CARTESIAN_POINT('',(2.6E0,1.5E0,6.E0));
#345=LINE('',#344,#343);
#346=CURVE_STYLE('',#45,POSITIVE_LENGTH_MEASURE(2.E-2),#31);
#347=PRESENTATION_STYLE_ASSIGNMENT((#346));
#348=STYLED_ITEM('',(#347),#345);
#349=DIRECTION('',(0.E0,-1.E0,0.E0));
#350=VECTOR('',#349,4.1E0);
#351=CARTESIAN_POINT('',(2.6E0,5.6E0,6.E0));
#352=LINE('',#351,#350);
#353=CURVE_STYLE('',#45,POSITIVE_LENGTH_MEASURE(2.E-2),#31);
#354=PRESENTATION_STYLE_ASSIGNMENT((#353));
#355=STYLED_ITEM('',(#354),#352);
#356=CARTESIAN_POINT('',(3.E0,5.6E0,6.E0));
#357=DIRECTION('',(0.E0,0.E0,-1.E0));
#358=DIRECTION('',(-1.E0,0.E0,0.E0));
#359=AXIS2_PLACEMENT_3D('',#356,#357,#358);
#361=CURVE_STYLE('',#45,POSITIVE_LENGTH_MEASURE(2.E-2),#31);
#362=PRESENTATION_STYLE_ASSIGNMENT((#361));
#363=STYLED_ITEM('',(#362),#360);
#364=DIRECTION('',(0.E0,1.E0,0.E0));
#365=VECTOR('',#364,5.6E0);
#366=CARTESIAN_POINT('',(3.4E0,0.E0,6.E0));
#367=LINE('',#366,#365);
#368=CURVE_STYLE('',#45,POSITIVE_LENGTH_MEASURE(2.E-2),#31);
#369=PRESENTATION_STYLE_ASSIGNMENT((#368));
#370=STYLED_ITEM('',(#369),#367);
#371=DIRECTION('',(1.E0,0.E0,0.E0));
#372=VECTOR('',#371,6.8E0);
#373=CARTESIAN_POINT('',(-3.4E0,0.E0,6.E0));
#374=LINE('',#373,#372);
#375=CURVE_STYLE('',#45,POSITIVE_LENGTH_MEASURE(2.E-2),#31);
#376=PRESENTATION_STYLE_ASSIGNMENT((#375));
#377=STYLED_ITEM('',(#376),#374);
#378=DIRECTION('',(0.E0,-1.E0,0.E0));
#379=VECTOR('',#378,5.6E0);
#380=CARTESIAN_POINT('',(-3.4E0,5.6E0,6.E0));
#381=LINE('',#380,#379);
#382=CURVE_STYLE('',#45,POSITIVE_LENGTH_MEASURE(2.E-2),#31);
#383=PRESENTATION_STYLE_ASSIGNMENT((#382));
#384=STYLED_ITEM('',(#383),#381);
#385=CARTESIAN_POINT('',(2.6E0,1.5E0,-6.E0));
#386=CARTESIAN_POINT('',(1.4E0,1.5E0,-6.E0));
#387=VERTEX_POINT('',#385);
#388=VERTEX_POINT('',#386);
#389=CARTESIAN_POINT('',(6.E-1,1.5E0,-6.E0));
#390=CARTESIAN_POINT('',(-6.E-1,1.5E0,-6.E0));
#391=VERTEX_POINT('',#389);
#392=VERTEX_POINT('',#390);
#393=CARTESIAN_POINT('',(-1.4E0,1.5E0,-6.E0));
#394=CARTESIAN_POINT('',(-2.6E0,1.5E0,-6.E0));
#395=VERTEX_POINT('',#393);
#396=VERTEX_POINT('',#394);
#397=CARTESIAN_POINT('',(-3.4E0,0.E0,-6.E0));
#398=CARTESIAN_POINT('',(3.4E0,0.E0,-6.E0));
#399=VERTEX_POINT('',#397);
#400=VERTEX_POINT('',#398);
#401=CARTESIAN_POINT('',(2.6E0,1.5E0,6.E0));
#402=CARTESIAN_POINT('',(1.4E0,1.5E0,6.E0));
#403=VERTEX_POINT('',#401);
#404=VERTEX_POINT('',#402);
#405=CARTESIAN_POINT('',(6.E-1,1.5E0,6.E0));
#406=CARTESIAN_POINT('',(-6.E-1,1.5E0,6.E0));
#407=VERTEX_POINT('',#405);
#408=VERTEX_POINT('',#406);
#409=CARTESIAN_POINT('',(-1.4E0,1.5E0,6.E0));
#410=CARTESIAN_POINT('',(-2.6E0,1.5E0,6.E0));
#411=VERTEX_POINT('',#409);
#412=VERTEX_POINT('',#410);
#413=CARTESIAN_POINT('',(-3.4E0,0.E0,6.E0));
#414=CARTESIAN_POINT('',(3.4E0,0.E0,6.E0));
#415=VERTEX_POINT('',#413);
#416=VERTEX_POINT('',#414);
#417=CARTESIAN_POINT('',(-2.6E0,5.6E0,-6.E0));
#418=CARTESIAN_POINT('',(-3.4E0,5.6E0,-6.E0));
#419=VERTEX_POINT('',#417);
#420=VERTEX_POINT('',#418);
#421=CARTESIAN_POINT('',(-2.6E0,5.6E0,6.E0));
#422=VERTEX_POINT('',#421);
#423=CARTESIAN_POINT('',(-3.4E0,5.6E0,6.E0));
#424=VERTEX_POINT('',#423);
#425=CARTESIAN_POINT('',(-6.E-1,5.6E0,-6.E0));
#426=CARTESIAN_POINT('',(-1.4E0,5.6E0,-6.E0));
#427=VERTEX_POINT('',#425);
#428=VERTEX_POINT('',#426);
#429=CARTESIAN_POINT('',(-6.E-1,5.6E0,6.E0));
#430=VERTEX_POINT('',#429);
#431=CARTESIAN_POINT('',(-1.4E0,5.6E0,6.E0));
#432=VERTEX_POINT('',#431);
#433=CARTESIAN_POINT('',(1.4E0,5.6E0,-6.E0));
#434=CARTESIAN_POINT('',(6.E-1,5.6E0,-6.E0));
#435=VERTEX_POINT('',#433);
#436=VERTEX_POINT('',#434);
#437=CARTESIAN_POINT('',(1.4E0,5.6E0,6.E0));
#438=VERTEX_POINT('',#437);
#439=CARTESIAN_POINT('',(6.E-1,5.6E0,6.E0));
#440=VERTEX_POINT('',#439);
#441=CARTESIAN_POINT('',(3.4E0,5.6E0,-6.E0));
#442=CARTESIAN_POINT('',(2.6E0,5.6E0,-6.E0));
#443=VERTEX_POINT('',#441);
#444=VERTEX_POINT('',#442);
#445=CARTESIAN_POINT('',(3.4E0,5.6E0,6.E0));
#446=VERTEX_POINT('',#445);
#447=CARTESIAN_POINT('',(2.6E0,5.6E0,6.E0));
#448=VERTEX_POINT('',#447);
#449=CARTESIAN_POINT('',(0.E0,0.E0,-6.E0));
#450=DIRECTION('',(0.E0,0.E0,1.E0));
#451=DIRECTION('',(1.E0,0.E0,0.E0));
#452=AXIS2_PLACEMENT_3D('',#449,#450,#451);
#453=PLANE('',#452);
#455=ORIENTED_EDGE('',*,*,#454,.T.);
#457=ORIENTED_EDGE('',*,*,#456,.T.);
#459=ORIENTED_EDGE('',*,*,#458,.T.);
#461=ORIENTED_EDGE('',*,*,#460,.T.);
#463=ORIENTED_EDGE('',*,*,#462,.T.);
#465=ORIENTED_EDGE('',*,*,#464,.T.);
#467=ORIENTED_EDGE('',*,*,#466,.T.);
#469=ORIENTED_EDGE('',*,*,#468,.T.);
#471=ORIENTED_EDGE('',*,*,#470,.T.);
#473=ORIENTED_EDGE('',*,*,#472,.T.);
#475=ORIENTED_EDGE('',*,*,#474,.T.);
#477=ORIENTED_EDGE('',*,*,#476,.T.);
#479=ORIENTED_EDGE('',*,*,#478,.T.);
#481=ORIENTED_EDGE('',*,*,#480,.T.);
#483=ORIENTED_EDGE('',*,*,#482,.T.);
#485=ORIENTED_EDGE('',*,*,#484,.T.);
#486=EDGE_LOOP('',(#455,#457,#459,#461,#463,#465,#467,#469,#471,#473,#475,#477,
#479,#481,#483,#485));
#487=FACE_OUTER_BOUND('',#486,.F.);
#489=CARTESIAN_POINT('',(-3.E0,5.6E0,2.16432E1));
#490=DIRECTION('',(0.E0,0.E0,-1.E0));
#491=DIRECTION('',(-1.E0,0.E0,0.E0));
#492=AXIS2_PLACEMENT_3D('',#489,#490,#491);
#493=CYLINDRICAL_SURFACE('',#492,4.E-1);
#494=ORIENTED_EDGE('',*,*,#454,.F.);
#496=ORIENTED_EDGE('',*,*,#495,.F.);
#498=ORIENTED_EDGE('',*,*,#497,.F.);
#500=ORIENTED_EDGE('',*,*,#499,.T.);
#501=EDGE_LOOP('',(#494,#496,#498,#500));
#502=FACE_OUTER_BOUND('',#501,.F.);
#504=CARTESIAN_POINT('',(-2.6E0,1.5E0,-6.E0));
#505=DIRECTION('',(1.E0,0.E0,0.E0));
#506=DIRECTION('',(0.E0,1.E0,0.E0));
#507=AXIS2_PLACEMENT_3D('',#504,#505,#506);
#508=PLANE('',#507);
#509=ORIENTED_EDGE('',*,*,#495,.T.);
#510=ORIENTED_EDGE('',*,*,#484,.F.);
#512=ORIENTED_EDGE('',*,*,#511,.T.);
#514=ORIENTED_EDGE('',*,*,#513,.T.);
#515=EDGE_LOOP('',(#509,#510,#512,#514));
#516=FACE_OUTER_BOUND('',#515,.F.);
#518=CARTESIAN_POINT('',(-1.4E0,1.5E0,-6.E0));
#519=DIRECTION('',(0.E0,1.E0,0.E0));
#520=DIRECTION('',(-1.E0,0.E0,0.E0));
#521=AXIS2_PLACEMENT_3D('',#518,#519,#520);
#522=PLANE('',#521);
#523=ORIENTED_EDGE('',*,*,#482,.F.);
#525=ORIENTED_EDGE('',*,*,#524,.T.);
#527=ORIENTED_EDGE('',*,*,#526,.T.);
#528=ORIENTED_EDGE('',*,*,#511,.F.);
#529=EDGE_LOOP('',(#523,#525,#527,#528));
#530=FACE_OUTER_BOUND('',#529,.F.);
#532=CARTESIAN_POINT('',(-1.4E0,6.E0,-6.E0));
#533=DIRECTION('',(-1.E0,0.E0,0.E0));
#534=DIRECTION('',(0.E0,-1.E0,0.E0));
#535=AXIS2_PLACEMENT_3D('',#532,#533,#534);
#536=PLANE('',#535);
#538=ORIENTED_EDGE('',*,*,#537,.F.);
#540=ORIENTED_EDGE('',*,*,#539,.T.);
#541=ORIENTED_EDGE('',*,*,#524,.F.);
#542=ORIENTED_EDGE('',*,*,#480,.F.);
#543=EDGE_LOOP('',(#538,#540,#541,#542));
#544=FACE_OUTER_BOUND('',#543,.F.);
#546=CARTESIAN_POINT('',(-1.E0,5.6E0,2.16432E1));
#547=DIRECTION('',(0.E0,0.E0,-1.E0));
#548=DIRECTION('',(-1.E0,0.E0,0.E0));
#549=AXIS2_PLACEMENT_3D('',#546,#547,#548);
#550=CYLINDRICAL_SURFACE('',#549,4.E-1);
#551=ORIENTED_EDGE('',*,*,#478,.F.);
#553=ORIENTED_EDGE('',*,*,#552,.F.);
#555=ORIENTED_EDGE('',*,*,#554,.F.);
#556=ORIENTED_EDGE('',*,*,#537,.T.);
#557=EDGE_LOOP('',(#551,#553,#555,#556));
#558=FACE_OUTER_BOUND('',#557,.F.);
#560=CARTESIAN_POINT('',(-6.E-1,1.5E0,-6.E0));
#561=DIRECTION('',(1.E0,0.E0,0.E0));
#562=DIRECTION('',(0.E0,1.E0,0.E0));
#563=AXIS2_PLACEMENT_3D('',#560,#561,#562);
#564=PLANE('',#563);
#565=ORIENTED_EDGE('',*,*,#552,.T.);
#566=ORIENTED_EDGE('',*,*,#476,.F.);
#568=ORIENTED_EDGE('',*,*,#567,.T.);
#570=ORIENTED_EDGE('',*,*,#569,.T.);
#571=EDGE_LOOP('',(#565,#566,#568,#570));
#572=FACE_OUTER_BOUND('',#571,.F.);
#574=CARTESIAN_POINT('',(6.E-1,1.5E0,-6.E0));
#575=DIRECTION('',(0.E0,1.E0,0.E0));
#576=DIRECTION('',(-1.E0,0.E0,0.E0));
#577=AXIS2_PLACEMENT_3D('',#574,#575,#576);
#578=PLANE('',#577);
#579=ORIENTED_EDGE('',*,*,#474,.F.);
#581=ORIENTED_EDGE('',*,*,#580,.T.);
#583=ORIENTED_EDGE('',*,*,#582,.T.);
#584=ORIENTED_EDGE('',*,*,#567,.F.);
#585=EDGE_LOOP('',(#579,#581,#583,#584));
#586=FACE_OUTER_BOUND('',#585,.F.);
#588=CARTESIAN_POINT('',(6.E-1,6.E0,-6.E0));
#589=DIRECTION('',(-1.E0,0.E0,0.E0));
#590=DIRECTION('',(0.E0,-1.E0,0.E0));
#591=AXIS2_PLACEMENT_3D('',#588,#589,#590);
#592=PLANE('',#591);
#594=ORIENTED_EDGE('',*,*,#593,.F.);
#596=ORIENTED_EDGE('',*,*,#595,.T.);
#597=ORIENTED_EDGE('',*,*,#580,.F.);
#598=ORIENTED_EDGE('',*,*,#472,.F.);
#599=EDGE_LOOP('',(#594,#596,#597,#598));
#600=FACE_OUTER_BOUND('',#599,.F.);
#602=CARTESIAN_POINT('',(1.E0,5.6E0,2.16432E1));
#603=DIRECTION('',(0.E0,0.E0,-1.E0));
#604=DIRECTION('',(-1.E0,0.E0,0.E0));
#605=AXIS2_PLACEMENT_3D('',#602,#603,#604);
#606=CYLINDRICAL_SURFACE('',#605,4.E-1);
#607=ORIENTED_EDGE('',*,*,#470,.F.);
#609=ORIENTED_EDGE('',*,*,#608,.F.);
#611=ORIENTED_EDGE('',*,*,#610,.F.);
#612=ORIENTED_EDGE('',*,*,#593,.T.);
#613=EDGE_LOOP('',(#607,#609,#611,#612));
#614=FACE_OUTER_BOUND('',#613,.F.);
#616=CARTESIAN_POINT('',(1.4E0,1.5E0,-6.E0));
#617=DIRECTION('',(1.E0,0.E0,0.E0));
#618=DIRECTION('',(0.E0,1.E0,0.E0));
#619=AXIS2_PLACEMENT_3D('',#616,#617,#618);
#620=PLANE('',#619);
#621=ORIENTED_EDGE('',*,*,#608,.T.);
#622=ORIENTED_EDGE('',*,*,#468,.F.);
#624=ORIENTED_EDGE('',*,*,#623,.T.);
#626=ORIENTED_EDGE('',*,*,#625,.T.);
#627=EDGE_LOOP('',(#621,#622,#624,#626));
#628=FACE_OUTER_BOUND('',#627,.F.);
#630=CARTESIAN_POINT('',(2.6E0,1.5E0,-6.E0));
#631=DIRECTION('',(0.E0,1.E0,0.E0));
#632=DIRECTION('',(-1.E0,0.E0,0.E0));
#633=AXIS2_PLACEMENT_3D('',#630,#631,#632);
#634=PLANE('',#633);
#635=ORIENTED_EDGE('',*,*,#466,.F.);
#637=ORIENTED_EDGE('',*,*,#636,.T.);
#639=ORIENTED_EDGE('',*,*,#638,.T.);
#640=ORIENTED_EDGE('',*,*,#623,.F.);
#641=EDGE_LOOP('',(#635,#637,#639,#640));
#642=FACE_OUTER_BOUND('',#641,.F.);
#644=CARTESIAN_POINT('',(2.6E0,6.E0,-6.E0));
#645=DIRECTION('',(-1.E0,0.E0,0.E0));
#646=DIRECTION('',(0.E0,-1.E0,0.E0));
#647=AXIS2_PLACEMENT_3D('',#644,#645,#646);
#648=PLANE('',#647);
#650=ORIENTED_EDGE('',*,*,#649,.F.);
#652=ORIENTED_EDGE('',*,*,#651,.T.);
#653=ORIENTED_EDGE('',*,*,#636,.F.);
#654=ORIENTED_EDGE('',*,*,#464,.F.);
#655=EDGE_LOOP('',(#650,#652,#653,#654));
#656=FACE_OUTER_BOUND('',#655,.F.);
#658=CARTESIAN_POINT('',(3.E0,5.6E0,2.16432E1));
#659=DIRECTION('',(0.E0,0.E0,-1.E0));
#660=DIRECTION('',(-1.E0,0.E0,0.E0));
#661=AXIS2_PLACEMENT_3D('',#658,#659,#660);
#662=CYLINDRICAL_SURFACE('',#661,4.E-1);
#663=ORIENTED_EDGE('',*,*,#462,.F.);
#665=ORIENTED_EDGE('',*,*,#664,.F.);
#667=ORIENTED_EDGE('',*,*,#666,.F.);
#668=ORIENTED_EDGE('',*,*,#649,.T.);
#669=EDGE_LOOP('',(#663,#665,#667,#668));
#670=FACE_OUTER_BOUND('',#669,.F.);
#672=CARTESIAN_POINT('',(3.4E0,0.E0,-6.E0));
#673=DIRECTION('',(1.E0,0.E0,0.E0));
#674=DIRECTION('',(0.E0,1.E0,0.E0));
#675=AXIS2_PLACEMENT_3D('',#672,#673,#674);
#676=PLANE('',#675);
#677=ORIENTED_EDGE('',*,*,#664,.T.);
#678=ORIENTED_EDGE('',*,*,#460,.F.);
#680=ORIENTED_EDGE('',*,*,#679,.T.);
#682=ORIENTED_EDGE('',*,*,#681,.T.);
#683=EDGE_LOOP('',(#677,#678,#680,#682));
#684=FACE_OUTER_BOUND('',#683,.F.);
#686=CARTESIAN_POINT('',(-3.4E0,0.E0,-6.E0));
#687=DIRECTION('',(0.E0,-1.E0,0.E0));
#688=DIRECTION('',(1.E0,0.E0,0.E0));
#689=AXIS2_PLACEMENT_3D('',#686,#687,#688);
#690=PLANE('',#689);
#691=ORIENTED_EDGE('',*,*,#458,.F.);
#693=ORIENTED_EDGE('',*,*,#692,.T.);
#695=ORIENTED_EDGE('',*,*,#694,.T.);
#696=ORIENTED_EDGE('',*,*,#679,.F.);
#697=EDGE_LOOP('',(#691,#693,#695,#696));
#698=FACE_OUTER_BOUND('',#697,.F.);
#700=CARTESIAN_POINT('',(-3.4E0,6.E0,-6.E0));
#701=DIRECTION('',(-1.E0,0.E0,0.E0));
#702=DIRECTION('',(0.E0,-1.E0,0.E0));
#703=AXIS2_PLACEMENT_3D('',#700,#701,#702);
#704=PLANE('',#703);
#705=ORIENTED_EDGE('',*,*,#499,.F.);
#707=ORIENTED_EDGE('',*,*,#706,.T.);
#708=ORIENTED_EDGE('',*,*,#692,.F.);
#709=ORIENTED_EDGE('',*,*,#456,.F.);
#710=EDGE_LOOP('',(#705,#707,#708,#709));
#711=FACE_OUTER_BOUND('',#710,.F.);
#713=CARTESIAN_POINT('',(0.E0,0.E0,6.E0));
#714=DIRECTION('',(0.E0,0.E0,1.E0));
#715=DIRECTION('',(1.E0,0.E0,0.E0));
#716=AXIS2_PLACEMENT_3D('',#713,#714,#715);
#717=PLANE('',#716);
#718=ORIENTED_EDGE('',*,*,#497,.T.);
#719=ORIENTED_EDGE('',*,*,#513,.F.);
#720=ORIENTED_EDGE('',*,*,#526,.F.);
#721=ORIENTED_EDGE('',*,*,#539,.F.);
#722=ORIENTED_EDGE('',*,*,#554,.T.);
#723=ORIENTED_EDGE('',*,*,#569,.F.);
#724=ORIENTED_EDGE('',*,*,#582,.F.);
#725=ORIENTED_EDGE('',*,*,#595,.F.);
#726=ORIENTED_EDGE('',*,*,#610,.T.);
#727=ORIENTED_EDGE('',*,*,#625,.F.);
#728=ORIENTED_EDGE('',*,*,#638,.F.);
#729=ORIENTED_EDGE('',*,*,#651,.F.);
#730=ORIENTED_EDGE('',*,*,#666,.T.);
#731=ORIENTED_EDGE('',*,*,#681,.F.);
#732=ORIENTED_EDGE('',*,*,#694,.F.);
#733=ORIENTED_EDGE('',*,*,#706,.F.);
#734=EDGE_LOOP('',(#718,#719,#720,#721,#722,#723,#724,#725,#726,#727,#728,#729,
#730,#731,#732,#733));
#735=FACE_OUTER_BOUND('',#734,.F.);
#739=FILL_AREA_STYLE_COLOUR('',#31);
#740=FILL_AREA_STYLE('',(#739));
#741=SURFACE_STYLE_FILL_AREA(#740);
#742=SURFACE_SIDE_STYLE('',(#741));
#743=SURFACE_STYLE_USAGE(.BOTH.,#742);
#744=PRESENTATION_STYLE_ASSIGNMENT((#743));
#39=STYLED_ITEM('',(#744),#738);
#747=PLANE_ANGLE_MEASURE_WITH_UNIT(PLANE_ANGLE_MEASURE(1.745329251994E-2),#746);
#748=(CONVERSION_BASED_UNIT('DEGREE',#747)NAMED_UNIT(*)PLANE_ANGLE_UNIT());
#750=UNCERTAINTY_MEASURE_WITH_UNIT(LENGTH_MEASURE(1.504067489051E-3),#745,
'closure',
'Maximum model space distance between geometric entities at asserted connectivities');
#753=MECHANICAL_DESIGN_GEOMETRIC_PRESENTATION_REPRESENTATION('',(#48,#55,#62,
#69,#77,#84,#91,#98,#106,#113,#120,#127,#135,#142,#149,#156,#163,#170,#177,#184,
#191,#198,#205,#212,#219,#226,#233,#240,#247,#254,#261,#268,#276,#283,#290,#297,
#305,#312,#319,#326,#334,#341,#348,#355,#363,#370,#377,#384,#39),#751);
#754=APPLICATION_CONTEXT('automotive design');
#755=APPLICATION_PROTOCOL_DEFINITION('international standard',
'config_control_design',1994,#754);
#756=PRODUCT_DEFINITION_CONTEXT('',#754,'design');
#757=PRODUCT_CONTEXT('',#754,'mechanical');
#758=PRODUCT('XSD57_067','XSD57_067','NOT SPECIFIED',(#757));
#759=PRODUCT_DEFINITION_FORMATION_WITH_SPECIFIED_SOURCE('1','LAST_VERSION',#758,
.MADE.);
#767=DERIVED_UNIT_ELEMENT(#766,-3.E0);
#769=DERIVED_UNIT_ELEMENT(#768,1.E0);
#770=DERIVED_UNIT((#767,#769));
#771=MEASURE_REPRESENTATION_ITEM('density measure',POSITIVE_RATIO_MEASURE(
2.78E-6),#770);
#775=DESCRIPTIVE_REPRESENTATION_ITEM('D16T','');
#784=DERIVED_UNIT_ELEMENT(#783,2.E0);
#785=AREA_UNIT((#784));
#786=MEASURE_REPRESENTATION_ITEM('surface area measure',AREA_MEASURE(
6.633691982472E2),#785);
#791=DERIVED_UNIT_ELEMENT(#790,3.E0);
#792=VOLUME_UNIT((#791));
#793=MEASURE_REPRESENTATION_ITEM('volume measure',VOLUME_MEASURE(
2.919037165980E2),#792);
#797=CARTESIAN_POINT('centre point',(-1.120535579423E-7,2.467652112138E0,0.E0));
#802=DERIVED_UNIT_ELEMENT(#801,2.E0);
#803=AREA_UNIT((#802));
#804=MEASURE_REPRESENTATION_ITEM('surface area measure',AREA_MEASURE(
6.633691982472E2),#803);
#809=DERIVED_UNIT_ELEMENT(#808,3.E0);
#810=VOLUME_UNIT((#809));
#811=MEASURE_REPRESENTATION_ITEM('volume measure',VOLUME_MEASURE(
2.919037165980E2),#810);
#815=CARTESIAN_POINT('centre point',(-1.120535579423E-7,2.467652112138E0,0.E0));
#820=DERIVED_UNIT_ELEMENT(#819,-3.E0);
#822=DERIVED_UNIT_ELEMENT(#821,1.E0);
#823=DERIVED_UNIT((#820,#822));
#824=MEASURE_REPRESENTATION_ITEM('density measure',POSITIVE_RATIO_MEASURE(
2.78E-6),#823);
#828=DESCRIPTIVE_REPRESENTATION_ITEM('D16T',
'\X2\0421043F043B04300432\X0\ \X2\0430043B044E043C0438043D043804350432044B0439\X0\ \X2\0414\X0\16T \X2\0413041E04210422\X0\ 4784\N\\X2\04370430043A0430043B0435043D043D044B0439\X0\ \X2\0438\X0\ \X2\04380441043A04430441044204320435043D043D043E\X0\ \X2\0441043E04410442043004400435043D043D044B0439\X0\');
#1=COLOUR_RGB('',0.E0,3.1E-2,3.4E-1);
#2=COLOUR_RGB('',0.E0,5.E-1,0.E0);
#3=COLOUR_RGB('',0.E0,5.E-1,5.E-1);
#4=COLOUR_RGB('',0.E0,5.E-1,9.E-1);
#5=COLOUR_RGB('',0.E0,9.E-1,0.E0);
#6=DRAUGHTING_PRE_DEFINED_COLOUR('cyan');
#7=COLOUR_RGB('',1.7E-1,1.7E-1,1.8E-1);
#8=COLOUR_RGB('',2.49E-1,5.93E-1,6.3E-1);
#9=COLOUR_RGB('',3.E-1,3.E-1,3.E-1);
#10=COLOUR_RGB('',3.44E-1,3.63E-1,3.74E-1);
#11=COLOUR_RGB('',4.E-1,1.3E-1,0.E0);
#12=COLOUR_RGB('',3.99E-1,3.97E-1,6.41E-1);
#13=COLOUR_RGB('',5.E-1,0.E0,5.E-1);
#14=COLOUR_RGB('',5.E-1,2.6E-1,0.E0);
#15=COLOUR_RGB('',5.E-1,5.E-1,2.5E-1);
#16=COLOUR_RGB('',5.E-1,9.E-1,5.E-1);
#17=COLOUR_RGB('',6.35294E-1,6.86275E-1,7.4902E-1);
#18=COLOUR_RGB('',6.39216E-1,4.E-1,2.07843E-1);
#19=COLOUR_RGB('',6.4E-1,6.5E-1,6.5E-1);
#20=COLOUR_RGB('',6.47059E-1,6.19608E-1,5.88235E-1);
#21=COLOUR_RGB('',6.47059E-1,6.43652E-1,5.64347E-1);
#22=COLOUR_RGB('',7.E-1,7.E-1,7.E-1);
#23=COLOUR_RGB('',7.7E-1,7.5E-1,7.3E-1);
#24=COLOUR_RGB('',8.39216E-1,4.47059E-1,3.88235E-1);
#25=COLOUR_RGB('',8.41E-1,8.01E-1,7.15E-1);
#26=COLOUR_RGB('',8.4E-1,8.4E-1,8.5E-1);
#27=COLOUR_RGB('',8.47059E-1,8.47059E-1,8.47059E-1);
#28=COLOUR_RGB('',8.6E-1,4.7E-1,1.6E-1);
#29=COLOUR_RGB('',8.9E-1,9.E-1,0.E0);
#30=COLOUR_RGB('',8.9E-1,9.E-1,5.E-1);
#31=COLOUR_RGB('',8.98039E-1,9.17647E-1,9.29412E-1);
#32=COLOUR_RGB('',9.E-1,0.E0,5.E-1);
#33=COLOUR_RGB('',9.E-1,0.E0,9.E-1);
#34=COLOUR_RGB('',9.E-1,2.5E-1,2.5E-1);
#35=COLOUR_RGB('',9.E-1,5.E-1,9.E-1);
#36=COLOUR_RGB('',9.4902E-1,7.56863E-1,1.76471E-1);
#37=COLOUR_RGB('',1.E0,3.5E-1,0.E0);
#38=DRAUGHTING_PRE_DEFINED_COLOUR('white');
#44=CIRCLE('',#43,4.E-1);
#74=CIRCLE('',#73,4.E-1);
#103=CIRCLE('',#102,4.E-1);
#132=CIRCLE('',#131,4.E-1);
#273=CIRCLE('',#272,4.E-1);
#302=CIRCLE('',#301,4.E-1);
#331=CIRCLE('',#330,4.E-1);
#360=CIRCLE('',#359,4.E-1);
#454=EDGE_CURVE('',#419,#420,#44,.T.);
#456=EDGE_CURVE('',#420,#399,#52,.T.);
#458=EDGE_CURVE('',#399,#400,#59,.T.);
#460=EDGE_CURVE('',#400,#443,#66,.T.);
#462=EDGE_CURVE('',#443,#444,#74,.T.);
#464=EDGE_CURVE('',#444,#387,#81,.T.);
#466=EDGE_CURVE('',#387,#388,#88,.T.);
#468=EDGE_CURVE('',#388,#435,#95,.T.);
#470=EDGE_CURVE('',#435,#436,#103,.T.);
#472=EDGE_CURVE('',#436,#391,#110,.T.);
#474=EDGE_CURVE('',#391,#392,#117,.T.);
#476=EDGE_CURVE('',#392,#427,#124,.T.);
#478=EDGE_CURVE('',#427,#428,#132,.T.);
#480=EDGE_CURVE('',#428,#395,#139,.T.);
#482=EDGE_CURVE('',#395,#396,#146,.T.);
#484=EDGE_CURVE('',#396,#419,#153,.T.);
#488=ADVANCED_FACE('',(#487),#453,.F.);
#495=EDGE_CURVE('',#422,#419,#160,.T.);
#497=EDGE_CURVE('',#424,#422,#273,.T.);
#499=EDGE_CURVE('',#424,#420,#265,.T.);
#503=ADVANCED_FACE('',(#502),#493,.T.);
#511=EDGE_CURVE('',#396,#412,#167,.T.);
#513=EDGE_CURVE('',#412,#422,#280,.T.);
#517=ADVANCED_FACE('',(#516),#508,.T.);
#524=EDGE_CURVE('',#395,#411,#174,.T.);
#526=EDGE_CURVE('',#411,#412,#287,.T.);
#531=ADVANCED_FACE('',(#530),#522,.T.);
#537=EDGE_CURVE('',#432,#428,#181,.T.);
#539=EDGE_CURVE('',#432,#411,#294,.T.);
#545=ADVANCED_FACE('',(#544),#536,.T.);
#552=EDGE_CURVE('',#430,#427,#188,.T.);
#554=EDGE_CURVE('',#432,#430,#302,.T.);
#559=ADVANCED_FACE('',(#558),#550,.T.);
#567=EDGE_CURVE('',#392,#408,#195,.T.);
#569=EDGE_CURVE('',#408,#430,#309,.T.);
#573=ADVANCED_FACE('',(#572),#564,.T.);
#580=EDGE_CURVE('',#391,#407,#202,.T.);
#582=EDGE_CURVE('',#407,#408,#316,.T.);
#587=ADVANCED_FACE('',(#586),#578,.T.);
#593=EDGE_CURVE('',#440,#436,#209,.T.);
#595=EDGE_CURVE('',#440,#407,#323,.T.);
#601=ADVANCED_FACE('',(#600),#592,.T.);
#608=EDGE_CURVE('',#438,#435,#216,.T.);
#610=EDGE_CURVE('',#440,#438,#331,.T.);
#615=ADVANCED_FACE('',(#614),#606,.T.);
#623=EDGE_CURVE('',#388,#404,#223,.T.);
#625=EDGE_CURVE('',#404,#438,#338,.T.);
#629=ADVANCED_FACE('',(#628),#620,.T.);
#636=EDGE_CURVE('',#387,#403,#230,.T.);
#638=EDGE_CURVE('',#403,#404,#345,.T.);
#643=ADVANCED_FACE('',(#642),#634,.T.);
#649=EDGE_CURVE('',#448,#444,#237,.T.);
#651=EDGE_CURVE('',#448,#403,#352,.T.);
#657=ADVANCED_FACE('',(#656),#648,.T.);
#664=EDGE_CURVE('',#446,#443,#244,.T.);
#666=EDGE_CURVE('',#448,#446,#360,.T.);
#671=ADVANCED_FACE('',(#670),#662,.T.);
#679=EDGE_CURVE('',#400,#416,#251,.T.);
#681=EDGE_CURVE('',#416,#446,#367,.T.);
#685=ADVANCED_FACE('',(#684),#676,.T.);
#692=EDGE_CURVE('',#399,#415,#258,.T.);
#694=EDGE_CURVE('',#415,#416,#374,.T.);
#699=ADVANCED_FACE('',(#698),#690,.T.);
#706=EDGE_CURVE('',#424,#415,#381,.T.);
#712=ADVANCED_FACE('',(#711),#704,.T.);
#736=ADVANCED_FACE('',(#735),#717,.T.);
#737=CLOSED_SHELL('',(#488,#503,#517,#531,#545,#559,#573,#587,#601,#615,#629,
#643,#657,#671,#685,#699,#712,#736));
#738=MANIFOLD_SOLID_BREP('',#737);
#745=(LENGTH_UNIT()NAMED_UNIT(*)SI_UNIT(.MILLI.,.METRE.));
#746=(NAMED_UNIT(*)PLANE_ANGLE_UNIT()SI_UNIT($,.RADIAN.));
#749=(NAMED_UNIT(*)SI_UNIT($,.STERADIAN.)SOLID_ANGLE_UNIT());
#751=(GEOMETRIC_REPRESENTATION_CONTEXT(3)GLOBAL_UNCERTAINTY_ASSIGNED_CONTEXT((
#750))GLOBAL_UNIT_ASSIGNED_CONTEXT((#745,#748,#749))REPRESENTATION_CONTEXT
('ID1','3'));
#752=ADVANCED_BREP_SHAPE_REPRESENTATION('',(#738),#751);
#760=PRODUCT_DEFINITION('design','',#759,#756);
#761=PRODUCT_DEFINITION_SHAPE('','SHAPE FOR XSD57_067.',#760);
#762=SHAPE_ASPECT('','solid data associated with XSD57_067',#761,.F.);
#763=PROPERTY_DEFINITION('',
'shape for solid data with which properties are associated',#762);
#764=SHAPE_REPRESENTATION('',(#738),#751);
#765=SHAPE_DEFINITION_REPRESENTATION(#763,#764);
#766=(LENGTH_UNIT()NAMED_UNIT(*)SI_UNIT(.MILLI.,.METRE.));
#768=(MASS_UNIT()NAMED_UNIT(*)SI_UNIT(.KILO.,.GRAM.));
#772=PROPERTY_DEFINITION('material_property','density',#762);
#773=REPRESENTATION('density',(#771),#751);
#774=PROPERTY_DEFINITION_REPRESENTATION(#772,#773);
#776=PROPERTY_DEFINITION('material property','material name',#762);
#777=REPRESENTATION('material name',(#775),#751);
#778=PROPERTY_DEFINITION_REPRESENTATION(#776,#777);
#779=SHAPE_ASPECT('','solid data associated with XSD57_067',#761,.F.);
#780=PROPERTY_DEFINITION('',
'shape for solid data with which properties are associated',#779);
#781=SHAPE_REPRESENTATION('',(#738),#751);
#782=SHAPE_DEFINITION_REPRESENTATION(#780,#781);
#783=(LENGTH_UNIT()NAMED_UNIT(*)SI_UNIT(.MILLI.,.METRE.));
#787=PROPERTY_DEFINITION('geometric validation property','area of XSD57_067',
#779);
#788=REPRESENTATION('surface area',(#786),#751);
#789=PROPERTY_DEFINITION_REPRESENTATION(#787,#788);
#790=(LENGTH_UNIT()NAMED_UNIT(*)SI_UNIT(.MILLI.,.METRE.));
#794=PROPERTY_DEFINITION('geometric validation property','volume of XSD57_067',
#779);
#795=REPRESENTATION('volume',(#793),#751);
#796=PROPERTY_DEFINITION_REPRESENTATION(#794,#795);
#798=PROPERTY_DEFINITION('geometric validation property',
'centroid of XSD57_067',#779);
#799=REPRESENTATION('centroid',(#797),#751);
#800=PROPERTY_DEFINITION_REPRESENTATION(#798,#799);
#801=(LENGTH_UNIT()NAMED_UNIT(*)SI_UNIT(.MILLI.,.METRE.));
#805=PROPERTY_DEFINITION('geometric validation property','area of XSD57_067',
#761);
#806=REPRESENTATION('surface area',(#804),#751);
#807=PROPERTY_DEFINITION_REPRESENTATION(#805,#806);
#808=(LENGTH_UNIT()NAMED_UNIT(*)SI_UNIT(.MILLI.,.METRE.));
#812=PROPERTY_DEFINITION('geometric validation property','volume of XSD57_067',
#761);
#813=REPRESENTATION('volume',(#811),#751);
#814=PROPERTY_DEFINITION_REPRESENTATION(#812,#813);
#816=PROPERTY_DEFINITION('geometric validation property',
'centroid of XSD57_067',#761);
#817=REPRESENTATION('centroid',(#815),#751);
#818=PROPERTY_DEFINITION_REPRESENTATION(#816,#817);
#819=(LENGTH_UNIT()NAMED_UNIT(*)SI_UNIT(.MILLI.,.METRE.));
#821=(MASS_UNIT()NAMED_UNIT(*)SI_UNIT(.KILO.,.GRAM.));
#825=PROPERTY_DEFINITION('material_property','density',#760);
#826=REPRESENTATION('density',(#824),#751);
#827=PROPERTY_DEFINITION_REPRESENTATION(#825,#826);
#829=PROPERTY_DEFINITION('material property','material name',#760);
#830=REPRESENTATION('material name',(#828),#751);
#831=PROPERTY_DEFINITION_REPRESENTATION(#829,#830);
#832=SHAPE_DEFINITION_REPRESENTATION(#761,#752);
ENDSEC;
END-ISO-10303-21;
